Coordinates
version=1
nRows=14
nColumns=36
inDegrees=yes

Units are S.I. units (second, meters, Newtons, ...)
If the header above contains a line with 'inDegrees', this indicates whether rotational values are in degrees (yes) or radians (no).

endheader
time	pelvis_tilt	pelvis_list	pelvis_rotation	pelvis_tx	pelvis_ty	pelvis_tz	hip_flexion_r	hip_adduction_r	hip_rotation_r	knee_angle_r	knee_angle_r_beta	ankle_angle_r	subtalar_angle_r	mtp_angle_r	hip_flexion_l	hip_adduction_l	hip_rotation_l	knee_angle_l	knee_angle_l_beta	ankle_angle_l	subtalar_angle_l	mtp_angle_l	lumbar_extension	lumbar_bending	lumbar_rotation	arm_flex_r	arm_add_r	arm_rot_r	elbow_flex_r	pro_sup_r	arm_flex_l	arm_add_l	arm_rot_l	elbow_flex_l	pro_sup_l
      0.00000000	      4.99665909	     -4.34578691	      0.05602429	      0.38988092	      1.35013334	     -0.25737540	     -9.43384518	      3.23403459	     -1.09676624	      0.16260283	      0.00283795	     14.62065552	      6.68887358	     -6.87449189	    -13.64853476	     -4.06732949	     -0.39639761	      0.11442982	      0.00199718	     17.71254124	      3.99517873	     -6.87449189	     -2.24575003	      7.77205222	     -2.76960034	     16.86806273	     -5.64029648	     -6.10477717	      7.73219980	     88.66639876	     12.35807291	     -3.08773141	     45.46954207	     59.41660334	     75.36774162
      0.01666670	      4.27601274	     -4.37267977	     -0.30599275	      0.39218592	      1.34594747	     -0.25756861	     -9.08773349	      3.28123313	      0.92750772	      0.16282225	      0.00284178	     17.17761748	      6.44433012	     -7.04867573	    -13.27025545	     -3.95357997	      1.25017549	      0.11194277	      0.00195377	     17.59120102	      2.61316706	     -7.04867573	     -1.29001770	      7.93364634	     -2.51263704	     17.78283726	     -6.36181107	     -3.97457985	     10.14611698	     84.32835592	     12.91622982	     -4.18375631	     49.37288052	     64.65026149	     73.37110637
      0.03333330	      4.91717130	     -4.49938165	     -0.27583157	      0.38388965	      1.35079631	     -0.25417624	     -9.71012009	      3.52104637	      1.32155391	      0.17118050	      0.00298766	     17.43499444	      6.36895380	     -7.22666703	    -13.83896286	     -4.15770386	      2.24866346	      0.10124303	      0.00176702	     17.26581047	      2.10140829	     -7.22666703	     -3.00940843	      8.31845730	     -2.15839512	     19.03761186	     -7.46740817	      3.63188949	     12.07961409	     81.45919040	     14.45175148	     -4.86887869	     51.41257493	     68.52466367	     74.72208994
      0.05000000	      5.57505724	     -4.31523336	      0.27349194	      0.39024446	      1.35009417	     -0.25156390	    -10.52388382	      3.40463393	      1.02691156	      0.18656817	      0.00325623	     18.05709847	      6.88163637	     -7.25573293	    -14.50342492	     -4.12111244	      2.47049043	      0.09852074	      0.00171951	     17.15025974	      2.28622563	     -7.25573293	     -4.01083008	      7.99319721	     -2.11387473	     19.22554458	     -7.59975025	      3.36912150	     13.87862904	     80.06901510	     15.32767741	     -5.39703978	     52.90692342	     72.31112952	     74.37539841
      0.06666670	      6.28963746	     -4.20845759	      0.50477687	      0.38945906	      1.35031802	     -0.25153359	    -11.40807269	      3.35741298	      1.01759453	      0.21173027	      0.00369539	     18.45520995	      7.30535213	     -7.30820381	    -15.30376361	     -4.11717939	      2.76332912	      0.09897919	      0.00172751	     16.81666748	      1.74028292	     -7.30820381	     -5.08236328	      7.82929371	     -1.64255710	     19.02546722	     -8.27263344	      3.27896113	     16.64895557	     77.98630895	     16.08007328	     -5.95210696	     54.14979173	     76.51112635	     73.52006887
      0.08333330	      6.91648295	     -4.07361373	      0.54179176	      0.38794830	      1.35083613	     -0.25127808	    -12.13167270	      3.18278570	      1.29385010	      0.24367233	      0.00425288	     18.50456067	      7.15189102	     -7.34340814	    -15.94101421	     -4.04355887	      2.81723733	      0.10030947	      0.00175073	     16.58951729	      1.36916038	     -7.34340814	     -6.20644884	      7.72509592	     -0.81077294	     18.97580016	     -9.13404228	      3.17226011	     18.57928654	     76.76977750	     16.83218581	     -6.13952506	     54.74026818	     79.77091817	     73.00649027
      0.10000000	      7.29006023	     -3.89110423	      0.51774383	      0.38720775	      1.35138229	     -0.25092309	    -12.58230409	      2.95070852	      1.40857670	      0.28354805	      0.00494885	     18.44283222	      7.06436627	     -7.36579739	    -16.30082243	     -3.88949411	      2.57486811	      0.10198284	      0.00177994	     16.34385478	      1.26791803	     -7.36579739	     -6.95101241	      7.48324803	     -0.62398183	     19.18379315	     -9.65229161	      3.05247493	     19.19079693	     76.28655773	     17.00314849	     -6.91399866	     55.30227036	     82.82934458	     72.93598697
      0.11666670	      7.56955236	     -3.77748048	      0.40043792	      0.39347638	      1.35471340	     -0.24749889	    -13.02146695	      2.78568900	      1.47714123	      0.33211965	      0.00579658	     18.41539418	      7.04834891	     -7.39048766	    -16.65110431	     -3.79218439	      2.18288051	      0.10188990	      0.00177831	     16.01970201	      1.29753249	     -7.39048766	     -7.34146513	      7.22059536	     -0.26960422	     18.19387496	    -10.01246781	      2.24782479	     19.43110566	     75.38572574	     16.28754195	     -7.31445720	     54.92737109	     84.49532964	     72.46993334
      0.13333330	      7.70429369	     -3.65115926	      0.34748189	      0.39244166	      1.35477004	     -0.24732641	    -13.28764234	      2.62978132	      1.39285732	      0.38193021	      0.00666594	     18.42963885	      6.92410796	     -7.40626965	    -16.80127015	     -3.68427103	      1.55638697	      0.10420932	      0.00181880	     15.98420585	      1.59555611	     -7.40626965	     -7.63265062	      7.11288521	     -0.34333197	     18.21878705	    -10.14922019	      1.10344288	     18.13839360	     75.82410533	     15.52455319	     -7.91209456	     53.96747252	     87.01190306	     73.17058664
      0.15000000	      7.98242014	     -3.57048114	      0.18293399	      0.39090282	      1.35748330	     -0.24704093	    -13.67844453	      2.49006903	      1.44664440	      0.47472722	      0.00828555	     18.52535877	      6.76377437	     -7.42653697	    -17.16975487	     -3.54195984	      1.06304947	      0.10509907	      0.00183432	     15.73188301	      1.56046648	     -7.42653697	     -8.47140145	      7.21216063	      0.91176225	     17.86536683	    -10.94328203	     -0.24479179	     17.73690295	     74.90428822	     15.54562256	     -8.05204220	     53.95091394	     88.79329975	     72.83305419
      0.16666670	      8.15498527	     -3.48592736	      0.03319239	      0.38976801	      1.35735372	     -0.24707556	    -13.91503587	      2.37349472	      1.37303396	      0.60540782	      0.01056636	     18.63505967	      6.65609240	     -7.45115422	    -17.40862639	     -3.37874737	      0.44590898	      0.10762221	      0.00187836	     15.63230298	      1.79490413	     -7.45115422	     -9.33620876	      7.45162239	      1.76757625	     19.20323617	    -11.55474466	     -0.54084831	     14.88643959	     81.32109507	     15.19433064	     -8.49545107	     53.34200233	     90.82518005	     80.78047518
      0.18333330	      8.34609972	     -3.42214603	     -0.16565359	      0.38763547	      1.35723383	     -0.24695332	    -14.11360496	      2.28543806	      1.43137794	      0.76850801	      0.01341300	     18.76690171	      6.46757442	     -7.45569666	    -17.63554303	     -3.20832086	     -0.11038769	      0.11097112	      0.00193681	     15.57650205	      1.97999092	     -7.45569666	    -10.02667607	      7.45169826	      3.31273700	     19.00086259	    -12.62722724	     -1.34451478	     14.65121956	     80.28201489	     15.34366841	     -8.58690546	     53.78982613	     92.55388830	     80.10839622
      0.20000000	      8.69726434	     -3.28333443	     -0.31563515	      0.38603897	      1.35726947	     -0.24697223	    -14.43388315	      2.15193114	      1.33896441	      0.96740542	      0.01688441	     18.95103820	      6.42095178	     -7.46055842	    -17.96474622	     -2.96353607	     -0.62622584	      0.11421317	      0.00199340	     15.55877783	      2.13589645	     -7.46055842	    -10.81191287	      7.36669832	      4.08536777	     19.18183719	    -13.34887214	     -2.55727680	     14.27273512	     79.60237416	     15.45395564	     -9.24975714	     54.68320011	     94.86086219	     80.15754467
      0.21666670	      9.08875213	     -3.19817860	     -0.39242871	      0.38416814	      1.35696153	     -0.24693331	    -14.78602072	      2.09160173	      1.20261501	      1.18949415	      0.02076059	     19.13527460	      6.38482700	     -7.47845680	    -18.33696895	     -2.78616643	     -0.98628471	      0.11659094	      0.00203490	     15.48874884	      2.22854056	     -7.47845680	    -11.56616308	      7.23367517	      4.33594122	     19.08059705	    -14.04856675	     -5.68053768	     13.63206215	     81.37364494	     15.18859882	     -9.62395080	     54.00942644	     96.80705712	     84.95891877
